<svg fill="#3F6078" height="250" viewBox="0 0 80 28" width="250" xmlns="http://www.w3.org/2000/svg" xmlns:xlink="http://www.w3.org/1999/xlink"><path d="M0 28L2.03276 6.56543L5.93894 6.21565L4.27387 23.7729L11.2056 23.138L10.8379 27.0206L0 28ZM20.135 26.3963C14.9279 26.8562 14.0069 22.9089 14.2153 20.7403L15.6913 5.26949L19.6272 4.91971L18.16 20.394C17.9674 22.4105 19.6658 22.5592 20.5132 22.484C21.3308 22.4123 23.0852 21.9593 23.2778 19.941L24.745 4.46674L28.681 4.11696L27.2102 19.621C27.0054 21.7914 25.3508 25.938 20.135 26.3963ZM40.1334 24.378L35.8525 12.5799L34.7425 24.8625L30.8065 25.2122L32.8393 3.77767L36.6684 3.42789L40.909 15.5985L42.0436 2.96094L45.92 2.61116L43.8873 24.0545L40.1334 24.378ZM58.8012 22.7078L57.9958 17.9141L52.3632 18.4125L50.6264 23.4319L46.5731 23.7939L54.2769 1.85913L59.1216 1.43064L62.8369 22.3563L58.8012 22.7078ZM56.2204 6.80853L53.6746 14.4792L57.3987 14.1539L56.2204 6.80853ZM75.0947 21.2143L71.9729 13.2795L70.2221 13.4351L69.4377 21.7144L65.5 22.0642L67.5275 0.634893L74.2806 0.0367679C79.5192 -0.426692 80.1582 3.60803 79.9727 5.56331L79.8834 6.49722C79.738 8.03276 78.9011 10.8537 76.1155 12.3543L79.5157 20.8295L75.0947 21.2143ZM75.9964 5.99878C76.1855 4.01203 74.7008 3.84413 73.8516 3.91934L71.0975 4.16418L70.5863 9.55256L73.4016 9.30246C74.2491 9.22726 75.7285 8.82851 75.9194 6.81027L75.9964 5.99878Z"></path></svg>
